<svg version="1.2" width="34.6mm" height="18.1mm" viewBox="0 0 3460 1810" preserveAspectRatio="xMidYMid" fill-rule="evenodd" stroke-width="28.222" stroke-linejoin="round" xmlns="http://www.w3.org/2000/svg">
 <defs>
  <clipPath id="a">
   <path d="M0 0h3460v1810H0z"/>
  </clipPath>
 </defs>
 <g clip-path="url(#a)">
  <g class="ClosedBezier">
   <path d="M2197 1611h304c13 0 22-10 22-23 0-12-9-22-22-22h-609c-12 0-22 10-22 22 0 13 10 23 22 23h305z"/>
   <path d="M1368 1102c19-12 38-26 52-44 10-13 17-29 24-44 2-4 5-6 8-6 5 0 12 5 12 13v216h63c9 0 13 6 13 12s-4 13-13 13h-63v7c0 42 23 83 63 83 7 0 11 4 11 10 0 5-4 10-11 10-39 0-77-11-115-11-39 0-77 11-116 11-7 0-10-5-10-10 0-6 3-10 10-10 40 0 64-41 64-83v-7h-147c-20 0-27-12-27-20 0-3 1-5 2-5 70-82 121-183 121-291 0-8 6-14 12-14h2c21 6 42 11 63 11s42-5 63-11c1-1 2-1 4-1 10 0 16 9 11 15l-251 291h147v-116c0-7 1-15 8-19z"/>
   <path d="M1368 660c19-12 38-26 52-44 10-13 17-29 24-44 2-4 5-6 8-6 5 0 12 5 12 13v216h63c9 0 13 6 13 12s-4 13-13 13h-63v7c0 42 23 83 63 83 7 0 11 4 11 10 0 5-4 10-11 10-39 0-77-11-115-11-39 0-77 11-116 11-7 0-10-5-10-10 0-6 3-10 10-10 40 0 64-41 64-83v-7h-147c-20 0-27-12-27-20 0-3 1-5 2-5 70-82 121-183 121-291 0-8 6-14 12-14h2c21 6 42 11 63 11s42-5 63-11c1-1 2-1 4-1 10 0 16 9 11 15l-251 291h147V679c0-7 1-15 8-19z"/>
   <path d="M595 919h12c136 0 225 112 225 229 0 67-29 135-94 185-20 15-42 24-64 31 2 31 4 62 4 93 0 16-1 34-2 51-6 105-79 200-183 200-95 0-172-77-172-173 0-51 47-91 99-91 48 0 84 42 84 91 0 46-38 83-84 83-10 0-18-1-27-5 23 34 60 57 103 57 84 0 138-81 143-168 1-16 2-32 2-48 0-27-1-54-4-81-25 4-51 7-78 7-165 0-293-151-293-329 0-155 115-269 218-387-16-55-32-110-39-167-6-46-6-92-6-138 0-101 48-197 131-256 2-2 6-3 8-3 4 0 7 0 9 3 63 73 117 215 117 314 0 126-75 225-158 320 18 60 34 122 49 182zm75 409c60-21 99-83 99-144 0-79-58-157-152-167 21 102 41 203 53 311zm-341-203c0 119 114 217 233 217 24 0 48-1 72-5-12-112-33-215-56-320-69 7-109 54-109 105 0 38 22 80 72 108 4 4 6 9 6 13 0 10-9 19-20 19-2 0-5-1-8-1-70-38-102-102-102-163 0-77 51-153 140-173-12-51-25-103-40-154-94 106-188 213-188 354zm294-894c-87 42-142 131-142 228 0 65 16 117 31 170 71-85 129-174 129-285 0-48-4-69-18-113z"/>
   <path d="M2168 1490c-44 0-60 38-60 78 0 68 50 120 118 120 44 0 60-38 60-78 0-68-50-120-118-120zm247 99c0 38-31 67-64 85-47 27-100 37-154 37-53 0-107-10-154-37-33-18-64-47-64-85s31-67 64-86c47-26 101-36 154-36 54 0 107 10 154 36 33 19 64 48 64 86z"/>
  </g>
  <g class="Line" stroke="#000" stroke-width="22">
   <path d="M100 1368h3245"/>
   <path d="M100 1149h3245"/>
   <path d="M100 929h3245"/>
   <path d="M100 709h3245"/>
   <path d="M100 490h3245"/>
  </g>
  <g class="PolyPolygon">
   <path d="M3335 1370h-21V490h43v880h-22z"/>
  </g>
 </g>
</svg>